<?xml version="1.0" encoding="UTF-8" standalone="no"?>
<!-- Generator: Adobe Illustrator 24.3.0, SVG Export Plug-In . SVG Version: 6.00 Build 0)  -->

<svg
   version="1.1"
   id="Capa_1"
   x="0px"
   y="0px"
   viewBox="0 0 4.4820285 2.0043768"
   xml:space="preserve"
   sodipodi:docname="logo_iluma_small.svg"
   width="4.4820285"
   height="2.0043769"
   inkscape:version="1.1.2 (b8e25be833, 2022-02-05)"
   xmlns:inkscape="http://www.inkscape.org/namespaces/inkscape"
   xmlns:sodipodi="http://sodipodi.sourceforge.net/DTD/sodipodi-0.dtd"
   xmlns="http://www.w3.org/2000/svg"
   xmlns:svg="http://www.w3.org/2000/svg"><defs
   id="defs47" /><sodipodi:namedview
   id="namedview45"
   pagecolor="#ffffff"
   bordercolor="#666666"
   borderopacity="1.0"
   inkscape:pageshadow="2"
   inkscape:pageopacity="0.0"
   inkscape:pagecheckerboard="true"
   showgrid="false"
   inkscape:zoom="64"
   inkscape:cx="-2.3359375"
   inkscape:cy="1.109375"
   inkscape:window-width="1920"
   inkscape:window-height="1027"
   inkscape:window-x="-8"
   inkscape:window-y="22"
   inkscape:window-maximized="1"
   inkscape:current-layer="Capa_1" />
<style
   type="text/css"
   id="style2">
	.st0{fill:#FFFFFF;}
	.st1{fill:#FFF36E;}
</style>
<g
   id="g42"
   transform="matrix(0.013138,0,0,0.01331635,-3.9657053,-4.9194592)">
	<g
   id="g20">
		<g
   id="g16">
			<rect
   x="303.69"
   y="435.98001"
   class="st0"
   width="14.53"
   height="55.490002"
   id="rect4" />
			<path
   class="st0"
   d="m 352.42,478.25 c -2.88,0.73 -3.78,-0.49 -3.78,-3.21 0,-3.64 0,-70.32 0,-70.32 h -14.53 c 0,0 0,73.82 0,75.95 0,4.03 1.62,11.89 11.31,11.89 6.34,0 10.48,-2.25 10.48,-2.25 l -2.4,-12.37 c 0,-0.01 -0.62,0.19 -1.08,0.31 z"
   id="path6" />
			<path
   class="st0"
   d="m 310.96,404.72 c -5.03,0 -9.11,4.08 -9.11,9.11 0,5.03 4.08,9.11 9.11,9.11 5.03,0 9.11,-4.08 9.11,-9.11 0,-5.03 -4.08,-9.11 -9.11,-9.11 z"
   id="path8" />
			<path
   class="st0"
   d="m 402.87,467.55 c 0,5.77 -4.7,10.47 -10.47,10.47 -5.77,0 -10.47,-4.7 -10.47,-10.47 V 435.98 H 367.4 v 31.57 c 0,13.78 7.58,25 21.37,25 6.72,0 11.96,-2.68 15.57,-7.01 1.5,2.82 4.98,6.25 13.06,6.25 0,-18.39 0,-55.36 0,-55.36 h -14.53 z"
   id="path10" />
			<path
   class="st0"
   d="m 513.09,491.88 v -33.37 c 0,-12.84 -6.82,-23.29 -19.66,-23.29 -7.4,0 -12.78,3.48 -16.03,8.87 -3.25,-5.39 -8.63,-8.87 -16.03,-8.87 -6.27,0 -11.1,2.51 -14.41,6.55 -1.74,-2.6 -5.29,-5.34 -12.52,-5.34 0,18.39 0,55.45 0,55.45 h 14.53 v -33.37 c 0,-4.83 3.93,-8.76 8.76,-8.76 4.83,0 8.77,3.93 8.77,8.76 v 33.37 h 14.53 v -33.37 c 0,-4.83 3.93,-8.76 8.76,-8.76 4.83,0 8.76,3.93 8.76,8.76 v 33.37 z"
   id="path12" />
			<path
   class="st0"
   d="m 563.44,485.54 c 1.5,2.82 4.98,6.25 13.06,6.25 0,-18.39 0,-55.49 0,-55.49 h -12.4 l -1.03,5.52 c -3.6,-4.08 -8.7,-6.6 -15.2,-6.6 -13.78,0 -21.37,11.21 -21.37,25 v 7.33 c 0,13.78 7.58,25 21.37,25 6.72,0 11.96,-2.68 15.57,-7.01 z m -1.47,-17.99 v 0 c 0,5.77 -4.7,10.47 -10.47,10.47 -5.77,0 -10.47,-4.7 -10.47,-10.47 v -7.33 c 0,-5.77 4.7,-10.47 10.47,-10.47 5.77,0 10.47,4.7 10.47,10.47 v 0 z"
   id="path14" />
		</g>
		<path
   class="st1"
   d="m 620.14,427.62 c -4.03,0 -7.19,-1.12 -7.19,-1.12 0,0 -3.16,1.12 -7.19,1.12 -12.61,0 -22.86,-10.26 -22.86,-22.86 0,-6.29 2.69,-12.34 7.57,-16.79 2.13,-10.85 11.61,-18.54 22.48,-18.54 11.39,0 20.53,8.3 22.48,18.54 2.71,2.47 7.57,8.14 7.57,16.79 0,12.61 -10.26,22.86 -22.86,22.86 z m -13.98,-4.99 c 6.7,0 11.86,-4.04 15.01,-7.42 5.31,-5.72 8.27,-11.55 9.23,-18.26 1.81,2.54 2.83,6.8 1.45,11.47 -2.44,8.23 -11.26,14.15 -11.26,14.15 6.66,0.2 17.33,-5.87 17.33,-17.8 0,-6.82 -3.16,-12.26 -9.14,-15.72 -4.28,-2.48 -10.2,-3.96 -15.82,-3.96 -4.01,0 -7.92,0.71 -11.4,2.05 0.55,-1.23 3.22,-7.4 13.21,-7.4 5.72,0 10.26,2.24 13.62,3.48 0,0 -4.84,-8.69 -15.43,-8.69 -11.81,0 -17.13,10.02 -17.71,16.34 -0.79,8.63 4.63,20.69 11.77,26.57 -2.13,0.43 -6.94,-0.41 -10.51,-4.56 -4.5,-5.23 -5.77,-14.49 -6.24,-16.79 -6.57,11.92 2.01,26.54 15.89,26.54 z"
   id="path18" />
	</g>
	<g
   id="g40">
		<g
   id="g38">
			<path
   class="st1"
   d="m 508.64,519.76 h -2.61 l -0.72,-2.63 h -3.41 l -0.72,2.63 h -2.47 l 3.8,-12.36 h 2.37 z m -6.29,-4.5 h 2.47 l -1.24,-4.45 z"
   id="path22" />
			<path
   class="st1"
   d="m 511.04,507.4 h 2.51 v 10.08 h 3.94 v 2.28 h -6.44 V 507.4 Z"
   id="path24" />
			<path
   class="st1"
   d="m 520.14,507.4 h 2.51 v 10.08 h 3.94 v 2.28 h -6.44 V 507.4 Z"
   id="path26" />
			<path
   class="st1"
   d="m 529.34,507.4 h 2.58 v 12.36 h -2.58 z"
   id="path28" />
			<path
   class="st1"
   d="m 544.35,519.76 h -2.61 l -0.72,-2.63 h -3.41 l -0.72,2.63 h -2.47 l 3.8,-12.36 h 2.37 z m -6.29,-4.5 h 2.47 l -1.24,-4.45 z"
   id="path30" />
			<path
   class="st1"
   d="m 549.04,511.91 v 7.86 h -2.3 V 507.4 h 2.44 l 3.58,7.54 v -7.54 h 2.28 v 12.36 h -2.28 z"
   id="path32" />
			<path
   class="st1"
   d="m 563.96,515.21 h 2.42 v 0.64 c 0,2.51 -1.68,4.1 -4.01,4.1 -2.38,0 -4.04,-1.54 -4.04,-4.04 v -4.59 c 0,-2.51 1.73,-4.08 4.1,-4.08 2.33,0 3.95,1.52 3.95,4.03 v 0.51 h -2.42 v -0.53 c 0,-1.13 -0.6,-1.8 -1.57,-1.8 -0.95,0 -1.55,0.67 -1.55,1.8 v 4.68 c 0,1.15 0.6,1.8 1.55,1.8 0.97,0 1.57,-0.65 1.57,-1.8 z"
   id="path34" />
			<path
   class="st1"
   d="M 569.66,519.76 V 507.4 h 6.71 v 2.21 h -4.2 v 2.75 h 3.5 v 2.07 h -3.5 v 3.13 h 4.29 v 2.21 h -6.8 z"
   id="path36" />
		</g>
	</g>
</g>
</svg>
